<svg version="1.2" xmlns="http://www.w3.org/2000/svg" viewBox="0 0 300 178" width="900" height="534">
	<style>
		.s0 { fill: #9c3ee4 } 
		.frame { opacity: 0; }

		#frame-1 { display: block; animation: aboutStep1 1.7s infinite step-end; }
		#frame-2 { display: block; animation: aboutStep2 1.7s infinite step-end; }
		#frame-3 { display: block; animation: aboutStep3 1.7s infinite step-end; }
		#frame-4 { display: block; animation: aboutStep4 1.7s infinite step-end; }

		@keyframes aboutStep1 {
		0%, 69% { opacity: 1; }
		70%, 79% { opacity: 0; }
		80%, 89% { opacity: 0; }
		90%, 100% { opacity: 0; }
		}
		@keyframes aboutStep2 {
		0%, 69% { opacity: 0; }
		70%, 79% { opacity: 1; }
		80%, 89% { opacity: 0; }
		90%, 100% { opacity: 0; }
		}
		@keyframes aboutStep3 {
		0%, 69% { opacity: 0; }
		70%, 79% { opacity: 0; }
		80%, 89% { opacity: 1; }
		90%, 100% { opacity: 0; }
		}
		@keyframes aboutStep4 {
		0%, 69% { opacity: 0; }
		70%, 79% { opacity: 0; }
		80%, 89% { opacity: 0; }
		90%, 100% { opacity: 1; }
		}
	</style>
	<g id="catbody">
		<path fill-rule="evenodd" class="s0" d="m56.39 32.33c0.17-1.55 11.79-3.95 13.78-3.77-0.18-2.49 1.34-15.8 2.27-19.99 0.25-1.09 16.48 17.9 18.64 29.58 3.84 23.07 16.01 33.1 17.9 34.54 1.87 13.06 1.42 16.13-4.09 29.49 7.96-13.58 6.39-21.42 6.08-29.13 2.55 0.28 7.73 0.89 14.64 1.89 3.3 0.48 11.28 1.42 26.64 2.59 14.64 4.34 36.25 11.47 47.86 34.39 4.39 6.19 9.95 10.41 14.33 16.91 1.87 2.76 10.62 13.64 8.5 17.09-3.28 5.37-6.83 7.61-10.16 7.61-2.78 0-5.87-4.18-6.82-5.57 0.14-0.68 0.36-1.98 0.69-4.4-8.93-14.76-8.62-10.91-14.43-14.87-7.37 2.5-25.33-3.87-28.22-5.54-6.98-4.02-12.69-10.57-12.69-10.57 0 0 7.88 9.7 12.46 11.44 9.86 3.74 22.11 8 28.55 5.82 3.33 0 6.65 3.64 11.42 9.87 2.76 3.08 2.47 6.64 2.17 8.17q-0.24-0.35-0.24-0.36c0 0-0.06 2.29-5.84 3.96-11.11-3.45-15.33-15.13-22.05-15.42-3.33-0.15-23.28 0.96-33.39-2.82-3.33 0-18.77 2.54-26.83 2.71-8.5 0.18-23.34-2.12-23.34-2.12 0 0-16.66 17.39-19.61 18.99-2.93 1.59-13.33 4-18.33-1.67-1.45-3.23 0-7.46 1.66-10.13 0.95-1.52 3.32-4.26 5.31-6.47 0.69-0.2 1.76-1.1 2.74-3q0.39-0.42 0.4-0.43l-0.12-0.14c7.68-21.42 23.05-17.98 23.05-17.98 0 0-15.55-3.6-23.99 16.87l-3.94-4.64c0 0-3.33 18.13-7.28 22.62-1.61 1.85-10.08 4.67-15.19-1.23-4.5-7.51 1.16-11.85 0-26.37 0.66-4.17 3.33-7.82 4.5-9.67 1.78-2.83 3.64-10.16 6.8-18.69 0.92-2.48 0.66-8.79 0.52-11.3 9.31 0.9 17.98 0.31 23.93-1.38-9.35 0.73-17.93 0.91-24.52 0.05-1.95-1.1-8.84-5.4-10.88-12.43-0.32-8.42-1.17-17.15-0.88-25.82 0.33-9.9 5.61-28.99 5.61-28.99zm15.38 18.38c-1.08 0.5-4 2.17-4.55 5.46-0.23 1.4-0.33 2.03 3.93 1.2 2.59-2.19 3.63-3.02 3.63-4.64 0-1.33 0.01-3.42-3.01-2.02zm-25.88 2.91c-0.6 0.84-0.58-0.73-0.7 2.6-0.07 1.67-0.32 2.6 3.03 3.85 3.13 1.16 3.35-0.61 1.74-3.54-2-3.63-3.12-4.24-4.07-2.91zm7 10.9c0 0-0.07 0.07 0.2 0.19zm0.21 0.19l4.13 3.93 2.66-4.56c0 0-0.68 0.77-3.55 1.33-2.08-0.31-2.91-0.54-3.24-0.7z"/>
	</g>
	<g id="frame-1" class="frame">
		<path class="s0" d="m156.22 78.99c0 0 12.85 6.49 30.72 13.44 10.37 4.03 18.99 8.34 27.95 11.98 16.21 6.6 18.7 6.69 29.7 8.49 9.72 1.59 6.99 0.75 20.96 1.99 10.68 0.96 11.98-0.74 27.71 1.5 2.99 5.49 3.85 3.95 2.74 8.74-1.49 6.49-8.68 5.15-9.23 5.24-7.99 1.25-13.98 1.25-17.47 1.25-8.49 0-12.52-1.05-19.72-1.25-6.7-0.19-10.22-0.6-19.22-2-8.93-1.39-9.63-1.92-19.96-6.74-9.51-4.43-18.01-12.65-18.01-12.65"/>
	</g>
	<g id="frame-2" class="frame">
		<path id="Path 0" class="s0" d="m278.17 92.95c-1.95-0.45-5.77-2.19-11.41-3.95-2.74-0.86-5.36-1.13-12.37-3.6-4.34-1.54-8.38-4.62-18.69-6.19-9.89-1.51-15.12-1.92-21.85-1.79-3.92 0.08-15.26 0.69-25.56 2.48-13.34 1.1-28.17 0.42-28.63 0.84-0.46 0.42 6.66 7.06 15.83 14.76 13.1 11.01 14.95 7.72 19.8 9.55 3.4 1.28 16.03-7.37 20.07-7.84 12.54-1.45 14.5-0.96 20.48-0.68 11.82 0.55 13.74 3.43 21.58 6.04 6.37 2.13 8.28 3.04 14.43 5.5 4.81 1.93 2.67 0.67 7.28 1.79 3.99 0.96 5.51 1.01 7.83 0.14 3.3-1.24 4.71-1.59 6.33-4.4 2.06-3.58-2.02-6.06-5.36-7.97"/>
	</g>
	<g id="frame-3" class="frame">
		<path id="Path 0" class="s0" d="m221 49.08c-2.47 0.52-6.3 2.01-8.5 3.31-2.2 1.29-7.6 6.34-12 11.21-4.4 4.87-8.9 9.68-10 10.69-1.1 1-4.03 2.76-6.5 3.9-2.47 1.13-6.75 2.29-9.5 2.58-2.75 0.29-7.93-0.01-11.5-0.66-3.57-0.65-6.6-1.05-6.73-0.9-0.12 0.16 7.66 6.82 17.29 14.79 9.64 7.97 17.84 14.61 18.23 14.75 0.39 0.14 1.72-1.66 2.96-4 1.24-2.34 5.49-7.85 9.44-12.25 3.95-4.4 9.49-11.15 12.32-15 2.83-3.85 6.46-8.04 8.06-9.31 1.61-1.27 3.83-2.55 4.93-2.84 1.1-0.3 3.8 0.35 6 1.42 2.2 1.08 5.13 3.31 6.5 4.97 1.38 1.65 4.97 6.27 8 10.26 4.24 5.6 7.56 8.61 14.5 13.17 6.71 4.4 9.89 5.9 12.5 5.89 2.08-0.01 4.41-0.84 5.75-2.04 1.44-1.3 2.26-3.18 2.27-5.27 0.02-2.27-0.81-4.04-2.75-5.88-1.52-1.44-5.25-3.44-8.27-4.45-3.02-1-7.3-3.22-9.5-4.92-2.2-1.71-8.27-8.18-13.5-14.38-5.22-6.2-10.85-12.11-12.5-13.13-1.65-1.03-5.25-2.09-8-2.36-2.75-0.28-7.03-0.08-9.5 0.45z"/>
	</g>
	<g id="frame-4" class="frame">
		<path id="Path 0" class="s0" d="m274.44 71.02c-1.83 1.99-1.86 2.5-0.55 9.29 1.25 6.45 1.23 7.52-0.25 10.44-0.9 1.79-3.55 4.62-5.89 6.3-2.34 1.67-6.05 3.53-8.25 4.11-2.6 0.7-9.59 0.83-20 0.38-8.8-0.38-19.15-1.29-23-2.01-3.85-0.73-18.03-5.43-31.5-10.44-13.47-5.01-24.88-8.77-25.34-8.35-0.46 0.42 6.66 7.06 15.83 14.76 13.1 11.01 17.98 14.5 22.83 16.32 3.4 1.28 9.44 2.97 13.43 3.75 3.99 0.79 12.31 1.42 18.5 1.41 6.19-0.01 16.2-0.69 22.25-1.51 6.66-0.9 12.97-2.41 16-3.82 2.75-1.28 6.74-4.09 8.87-6.24 2.13-2.15 4.83-5.71 5.99-7.91 1.6-3.05 2.1-5.78 2.09-11.5-0.01-6.1-0.47-8.34-2.5-12-1.48-2.7-3.3-4.62-4.52-4.79-1.13-0.17-2.92 0.65-3.99 1.81z"/>
	</g>
</svg>