<svg version="1.2" xmlns="http://www.w3.org/2000/svg" viewBox="0 0 360 300" width="432" height="360">
	<style>
		.s0 { fill: #301d40 } 
		.s1 { fill: #9c3ee4 }
		.frame { opacity: 0; }

		#frame-1 { display: block; animation: projectStep1 1.7s infinite step-end; }
		#frame-2 { display: block; animation: projectStep2 1.7s infinite step-end; }
		#frame-3 { display: block; animation: projectStep3 1.7s infinite step-end; }

		@keyframes projectStep1 {
			0%, 60% { opacity: 1; }
			61%, 79% { opacity: 0; }
			80%, 100% { opacity: 0; }
		}
		@keyframes projectStep2 {
			0%, 60% { opacity: 0; }
			61%, 79% { opacity: 1; }
			80%, 100% { opacity: 0; }
		}
		@keyframes projectStep3 {
			0%, 60% { opacity: 0; }
			61%, 79% { opacity: 0; }
			80%, 100% { opacity: 1; }
		}
	</style>
	<g id="frame-1" class="frame">
		<path id="ball 1" fill-rule="evenodd" class="s0" d="m161.36 120.35c2.46 2.09 5.25 3.84 8.13 4.22 5.13 0.67 23.21 6.03 29.19 7.83 5.07-5.54 9.28-12.47 11.81-17.09-5.48-5.97-13.35-9.71-22.09-9.71h-1.2c-11 0-20.62 5.92-25.84 14.75zm37.19 12.19c-5.25-1.12-19.17-4-26.53-4.94-2.9-0.38-7.61-3.33-11.36-6q-1.02 1.94-1.77 4.04l10.31 5.16-10.81-3.6q-0.87 2.95-1.11 6.11c1.24 0.78 2.61 1.55 3.8 2.03 3.07 1.24 22.62 2.58 29.91 3.03 1.89-0.96 3.19-1.69 3.6-2.04q2.05-1.71 3.96-3.79zm-7.91 6c-6.63 0.01-22.17-0.05-27.88-0.67-2.19-0.25-4.11-0.51-5.52-0.71 0.28 5.47 2.02 10.55 4.84 14.86 5.72-2.62 21.15-9.7 28.56-13.48zm27.53-6.66l-10.57 7.32 7.2-6 2.62-5.23c-0.99-3.75-2.67-7.2-4.91-10.23-4.44 6.8-11.51 16.95-15.7 19.71-4.63 3.03-27.33 11.88-34.64 14.69 5.36 8.11 14.58 13.46 25.03 13.46h1.2c7.51 0 8.56 1.16 39.07-16.1 1.96-1.11 17.16-5.22 14.37-5.22-15.04 0-26.37 8.6-24.82 3.73 0.92-2.88 1.38-9.22 1.38-12.41q0-1.9-0.23-3.72z"/>
		<path id="cat 1" fill-rule="evenodd" class="s1" d="m195.66 222.39c-0.7-0.04 13.3-2.12 15.31-2.22 2.02-0.1-7.95-0.3-13.79 0.91-2.2 0.45-2.06-9.67-1.69-11.33 2.73-12.29 4.67-14.71 7.15-22.32l-0.64-1.69c-0.36-0.93-4.2-10.28-5.44-14.9-0.44-1.65-1.38-3.48-1.94-5.78 6.1-1.19 7.58-2.18 10.9-3.61 2.44 2.87 8.16 14.15 14.66 24.74 5.12 5.13 6.55 9.31 7.06 22.3 4.4-11.02 7.32-19.62 12.12-32.09-4.48-2.56-21.68-12.4-33.64-21-1.66-1.19-5.99-6.05-7.05-8.41-0.42-0.94-1.07-4.43 2.19-6.54 4.38-2.87 9.58 1.19 12.14 2.79 3.88 2.45 20.96 13.24 28.43 16.62 4.86 2.21 11.1 5.14 15.51 6.87 0 0 2.43 12.66 5 23.61 10.83 6.94 18.15 22.58 20.12 40.78 7.98-15.08 11.4-25.86 13.84-35.34-0.14-6.35-1.31-21.12-5.08-33.78-0.85-2.86-5.77-17.44-8.08-24.36-0.74-2.24-1.16-13.02-0.92-15.17 0.61-5.4 4.58-10.29 9.4-10.32 5.65-0.03 6.56 6.34 7.98 10.53 1.28 3.8 2.98 12.15 4.59 21.48 0.36 2.11 3.33 14.46 5.1 21.3 5.36 20.65 6.2 37.22 1.81 52.95-4.67 16.68-19.9 37.26-25.04 41.94-1.92 1.76-9.84 8.16-16.42 12.94-4.24 3.09-15.74 10.56-30.3 16.31-6.91 2.73-22.94 6.58-36.6 8.34-4.41 0.56-24.45 1.88-33.44 0.43-3.94-0.64-20.16-4.87-35.04-11.47-14.45-6.4-35.47-19.32-45.66-28.46-1.69-1.51-15.17-12.92-23.27-22.94-1.58-1.94-9.91-11.8-15.37-24.14-1.67-1.48-7.44-23.24-4.19-34.8l2.14 2.12c1.17 1.16 3.69 3.28 5.59 4.67 1.9 1.4 4.67 3.37 6.14 4.35 1.49 1 3.28 2.1 3.99 2.45 1.21 0.63 1.32 0.63 2.24 0.15 0.54-0.28 2.2-0.95 6.37-2.51l-3.6 0.17c-2.43-0.3 1.53-12.98 3.46-12.77 0.25 0.02 4.13 8 5.75 10.5 1.75-2.25 12.59-5.92 28.01 3.67 0 0 7.33-2.17 7.8-1.93 0.32 0.17 1.26 0.89 3.54 2.91l-5.64 1.61 7.64 0.05c1.26-0.62 8.54 11.47 8.41 14.03-0.08 1.65-5.69 15.89-5.64 15.87 0.13-0.06 8.44 1.74 8.61 1.62 12.72-9.42 22.81-27.18 27.98-33.6 4.67-6.48 1.98-1.89 7.67-13.82 0.63-1.32 5.29-13.7 5.93-14.95l1.58 1.1c0.86 0.6 1.57 1.27 1.57 1.48-0.01 0.2-0.87 2.83-1.92 5.84-1.05 3.01-6.05 17.28-7.98 19.98-1.35 1.9-9.71 14.68-10.64 16.25-0.95 1.57-1.53 2.65-1.29 2.4 0.24-0.25 11.49-14.05 13.74-18.59 3.59-7.22 10.23-28.47 13.26-35.11 4.43-9.66 4.44-11.12 8.25-10.19 4.03 0.99 4.23 4.55 3.08 9.59-0.47 2.04-6.08 33.41-8.82 47.68l-5.17 8.85c-1.64 2.39-8.89 12.66-8.82 12.61m-74.39-25.51c3.19-0.48 6.04-1.32 5.23-2.3-1.92-2.35-14.42-1.85-11.53 1.94 0.78 1.02 3.67 0.76 6.3 0.36z"/>
	</g>
	<g id="frame-2" class="frame">
		<path id="ball 2" fill-rule="evenodd" class="s0" d="m167.69 132.4c1.65 2.77 3.73 5.32 6.32 6.61 4.66 2.29 20.04 13.17 25.13 16.81 6.58-3.6 12.79-8.81 16.68-12.37-3.28-7.42-9.52-13.49-17.78-16.31l-1.14-0.38c-10.42-3.54-21.42-1.05-29.21 5.64zm31.27 23.52c-4.61-2.75-16.86-9.96-23.52-13.23-2.63-1.29-6.13-5.6-8.82-9.35q-1.6 1.52-2.98 3.27l8.1 8.21-9.08-6.89q-1.76 2.51-3.01 5.42c0.92 1.14 1.97 2.31 2.94 3.15 2.51 2.17 20.58 9.72 27.33 12.5 2.1-0.3 3.58-0.58 4.07-0.77q2.5-0.96 4.97-2.31zm-9.42 3.13c-6.28-2.13-20.98-7.19-26.18-9.63-1.98-0.93-3.72-1.8-5-2.44-1.48 5.28-1.47 10.64-0.19 15.63 6.24-0.65 23.14-2.37 31.37-3.56zm28.21 2.57l-12.37 3.51 8.76-3.36 4.15-4.1c0.28-3.87-0.2-7.68-1.34-11.27-6.4 5-16.36 12.34-21.22 13.61-5.36 1.38-29.7 2.43-37.52 2.73 2.46 9.41 9.47 17.45 19.35 20.81l1.14 0.4c22.26 4.38 12.9 1.21 41.82-1.13 3.86-0.31 12.68 10.61 11.02 7.03-6.3-13.65-23.11-9.23-20.08-13.34 1.8-2.43 4.28-8.28 5.31-11.31q0.61-1.78 0.98-3.58z"/>
		<path id="cat 2" fill-rule="evenodd" class="s1" d="m194.33 222.85c-0.01-0.02 16.98-2.68 15.84-2.78-2.59-0.23-10.07 1.31-14.75 1.23-2.56-0.04 0.48-7.69 0.74-8.67 2.42-8.97 4.2-12.22 6.7-19.83l-0.54-3.74c-0.36-0.94-6.05-4.63-3.68-4.7 6.96-0.23 11.48-1.49 14.8-2.92 2.44 2.87 2.5 3.8 9.78 9.23 5.13 5.12 5.49 11.39 4.04 17.28 4.39-11.03 6.22-17.94 11.02-30.41-4.48-2.54-17.79 0.41-29.76-8.2-1.65-1.18-5.26-2.66-6.33-5.02-0.41-0.94 0.5-4.79 3.74-6.9 4.39-2.87 9.72 1.29 12.52 2.44 5.6 2.3 12.11 4 20.27 4.74 6.33 0.58 14.53 1.59 19.12 4.02 0 0 0.03 14.93 2.6 25.89 12.07 5.76 19.27 16.4 21.62 36.06 7.98-15.07 14.62-26.33 17.05-35.81-0.12-6.35-3.66-22.66-7.41-35.32-0.86-2.86-6.83-9.69-10.82-15.81-2.42-3.71-5.96-7.42-8.22-17.41 0.96-6.78-0.81-5.81 3.39-10.01 5.16-5.16 12.25 6.78 15.48 9.84 2.91 2.77 6.61 10.49 12.9 20.33 1.16 1.81 3.54 10.21 6.13 16.77 2.46 6.19 4.16 17.47 5.65 26.13 1.65 9.6-2 18.46-2.6 23.62-0.95 8.15-9.23 23.34-16.91 33.15-1.19 1.52-5.57 7.19-10.24 11.85-1.84 1.84-10.63 10.07-17.2 14.85-4.26 3.09-15.75 10.55-30.3 16.29-6.93 2.74-22.96 6.6-36.6 8.34-4.42 0.57-24.47 1.89-33.45 0.45-3.93-0.64-20.17-4.89-35.05-11.47-14.45-6.41-35.46-19.32-45.65-28.47-1.69-1.51-12.87-13.65-20.97-23.67-1.59-1.95-9.41-11.08-14.87-23.43-1.67-1.47-6.63-23.23-3.37-34.8 8.67 10.8 13.6 12.77 16.83 12.91 1.36 0.06 3.82-1.39 7.99-2.95l-4.34 0.57c-2.45-0.29 0.3-12.09 2.23-11.87 0.25 0.02 6.25 6.01 7.87 8.49 1.74-2.24 12.65-5.08 28.06 4.5 0 0 4.82-1.3 5.33-1.4 2.81-0.56 3.05 0.49 5.33 2.52l-4.62 2.1 6.58-0.7c1.6 0.4 8.45 12.18 8.7 14.74 0.21 2.08-6.21 13.62-6.18 13.61 0.14-0.06 7.24 4.59 7.41 4.46 12.47-10.49 22.1-18.54 30.01-24.86 6.19-6.47 7.2-9.21 10.21-17.83 4.32 2.3 4.67 2.25 4.61 2.44-1.06 3.02-0.11 1.88-1.15 4.89-1.06 3.01-3.83 9.09-5.76 11.79-1.35 1.9-15.85 12.05-15.53 11.94 4.54-1.64 13.99-7.52 17.11-11.5 4.18-5.33 5.76-9.64 7.91-16.54 3.17-10.14 4.4-17.62 8.2-16.68 4.03 0.98 3.99 1.3 4.17 6.47 0.13 3.91-2.58 22.53-5.31 36.81l-6.34 6.9c-1.63 2.39-5.46 6.04-4.02 5.61m-78.36-25.9c3.19-0.48 6.23-1.31 5.41-2.29-1.92-2.35-14.79-1.63-11.9 2.16 0.78 1.02 3.86 0.54 6.49 0.13z"/>
	</g>
	<g id="frame-3" class="frame">
		<path id="ball 3" fill-rule="evenodd" class="s0" d="m157.94 56.81c3.2 0.44 6.48 0.44 9.12-0.78 4.7-2.17 22.84-7.32 28.86-9 1.32-7.38 1.18-15.49 0.84-20.76-7.82-2.1-16.47-1.06-23.85 3.61l-1.02 0.65c-9.29 5.88-14.26 16.02-13.95 26.28zm37.95-9.59c-5.03 1.87-18.35 6.88-25.07 10.01-2.65 1.25-8.21 1.26-12.8 1.01q0.16 2.19 0.67 4.36l11.46-1.16-11.05 2.74q0.84 2.95 2.32 5.76c1.47-0.02 3.03-0.09 4.3-0.32 3.25-0.58 20.48-9.92 26.89-13.42 1.08-1.83 1.8-3.14 1.97-3.65q0.8-2.55 1.31-5.33zm-3.47 9.3c-5.62 3.56-18.78 11.82-23.93 14.34-1.98 0.96-3.74 1.78-5.04 2.36 3.16 4.47 7.35 7.83 12.03 9.95 3.43-5.25 12.68-19.49 16.94-26.65zm19.69-20.34l-5.01 11.83 2.88-8.91-0.59-5.84c-2.83-2.62-6.11-4.65-9.61-6.01-0.14 8.13-0.68 20.49-2.74 25.05-2.29 5.05-16.75 24.66-21.42 30.94 8.87 3.99 19.51 3.58 28.34-2.01l1.02-0.64c6.35-4.02 17.73-30.54 25.47-11.95 0.86 2.08 6.12 16.86 4.97 9.36-2.3-14.87-14.37-22.63-15.65-27.59-0.77-2.93-3.77-8.52-5.47-11.22q-1.01-1.59-2.19-3.01z"/>
		<path id="cat 3" fill-rule="evenodd" class="s1" d="m195.49 209.75c2.73-12.29 4.67-14.71 7.15-22.32l2.57-4.96c1.69-0.19-0.67-13.09-0.43-21.95 0-14.62 1.93-22.99 3.29-23.9 2.37-1.6 7.63 6.11 7.89 17.33 2.09 10.74 2.39 20.42 5.93 32.47 4.57 12.97 4.84 9.08 5.35 22.07 4.4-11.02 7.32-19.62 12.12-32.09 2.5-7.75 1.62-8.63-6.27-21.14-1.09-1.72-6.41-11.45-7.47-13.83-0.42-0.93-10.32-19.09-5.05-24.13 6.51-6.23 12.03 12.13 13.39 14.92 5.06 10.32 14.27 19.75 24.36 29.41 0 0 0.51 11.42 3.08 22.38 11.41 17.78 18.36 30.39 20.32 48.6 9.12-21.36 8.24-48.72 9.35-63.19 1.05-13.56 0.66-26.92 3.11-34.92 1.86-6.1 4.3-14.51 5.57-16.25 4.89-6.67 9.75-8.2 13.79-5.56 9.57 6.23-1.66 11.02-3.78 18.01-2.22 7.35-2.01 5.34-2.9 14.46-0.2 2.15-0.16 18.8-0.88 25.82-1.12 10.9-0.16 22.12-1.56 38.94-0.89 10.68 0.78 21.33-6.9 31.15-1.18 1.51-6.4 12.72-11.07 17.37-1.83 1.85-10.63 10.07-17.21 14.85-4.24 3.09-15.74 10.56-30.3 16.31-6.91 2.73-22.94 6.58-36.6 8.34-4.41 0.56-24.45 1.88-33.44 0.43-3.94-0.64-20.16-4.87-35.04-11.47-14.45-6.4-36.58-14.68-46.78-23.81-1.68-1.51-15.97-13.33-24.07-23.35-1.57-1.95-9.01-11.18-14.47-23.54-1.67-1.46-9.95-24.99-6.71-36.56 11.05 11.23 16.63 13.33 17.57 12.85 0.53-0.27 5.28-0.72 10.86-3.61l-2.9 0.36c-2.44-0.3-5.07-11.04-2.18-13.76 3.27 4.53 6.93 10.24 11.22 11.77 4.35-1.99 11.75-5.61 27.16 3.98 0 0 6.78-3.31 7.24-3.08 0.33 0.17 1.34 0.5 3.62 2.53l-5.06 2.9 7.05-0.73c1.26-0.62 9.18 11.03 9.05 13.59-0.08 1.65-6.79 17.29-5.78 16.64 0.1-0.07 10.33 0.56 10.5 0.44 12.72-9.42 17.95-22.83 21.78-30.36 3.96-9.84 5.32-9.28 7.24-24.6 0.3-2.43 0.18-12.42 0.82-13.65 0 0-0.96-4.91 3.68-7.25 3.44-1.73 5.2 7.66 5.2 7.66 0.88 0.6 0.65 15.3-0.41 18.31-1.05 3.01 1.09 11.34-3.48 15.92-1.64 1.66-9.71 14.68-10.64 16.25-0.95 1.57-1.53 2.65-1.29 2.4 0.24-0.25 11.49-14.05 13.74-18.59 3.59-7.22 6.23-28.76 7.55-35.94 1.5-8.19 3.29-12.41 6.97-11.06 3.77 1.37 4.34 6.5 4.78 12.15 0.96 12.17-0.54 25.84-2.32 35.81l-3.8 12.84c-3.17 5.75-11.47 19.68-11.4 19.63 1.86-1.03 25.87-0.55 27.27-0.05 0-0.01 17.67-3.09 16.11-3.02-6.65 0.3-16.11 0.91-16.11 0.91m-101.54-22.59c2.89-1.43 4.27-2.83 3.07-3.27-3.7-1.32-13.76 2.1-9.4 5.08 1.05 0.72 1.05 0.78 6.33-1.81z"/>
	</g>
</svg>