<svg version="1.2" xmlns="http://www.w3.org/2000/svg" viewBox="0 0 360 300" width="360" height="300">
	<style>
		.s0 { fill: #9c3ee4 } 
		.s1 { fill: #301d40 }
		.frame { opacity: 0; }

		#frame-1 { display: block; animation: skillStep1 2s infinite step-end; }
		#frame-2 { display: block; animation: skillStep2 2s infinite step-end; }
		#frame-3 { display: block; animation: skillStep3 2s infinite step-end; }
		#frame-4 { display: block; animation: skillStep4 2s infinite step-end; }

		@keyframes skillStep1 {
			0%, 24% { opacity: 1; }
			25%, 49% { opacity: 0; }
			50%, 74% { opacity: 0; }
			75%, 100% { opacity: 0; }
		}
		@keyframes skillStep2 {
			0%, 24% { opacity: 0; }
			25%, 49% { opacity: 1; }
			50%, 74% { opacity: 0; }
			75%, 100% { opacity: 0; }
		}
		@keyframes skillStep3 {
			0%, 24% { opacity: 0; }
			25%, 49% { opacity: 0; }
			50%, 74% { opacity: 1; }
			75%, 100% { opacity: 0; }
		}
		@keyframes skillStep4 {
			0%, 24% { opacity: 0; }
			25%, 49% { opacity: 0; }
			50%, 74% { opacity: 0; }
			75%, 100% { opacity: 1; }
		}
	</style>
	<g id="frame-1" class="frame">
		<path id="cat 1" fill-rule="evenodd" class="s0" d="m187.24 234c-5.44-16.02-13.39-28.87-18.83-34.06 2.51-2.93 5.65-7.89 34.53-19.17-10.67-10.6-41.23-16.92-53.37-7.44-6.48 2.48-21.97-3.16-43.95 3.15-3.03-5.69-1.4-37.64-0.39-45.95-13.39 1.4-38.03 32.92-43.32 47.62 6.93-41.87 52.27-73.66 113.77-93.04 76.15-23.99 101.66-21.73 146.63 23.6 6.55 6.61 10.37 14.56 11.87 23.37 4.53 12.39 10.05 31.38 9.82 50.13-0.65 53.99-130.87 106.66-139.13 93.55-13.95-6.24-13.9-23.46-13.9-23.46-2.49-6.56 5.32-22.35 17.85-20.62 8.8 1.22 10.2 13.75 10.2 13.75q0.45 0.81 1.28 1.35c0.22-1.75 0.41-4.69-3.83-12.35-2.65-6.3-15.41-5.39-22.32 1.82-5.02 8.02-5.25 15.5-4.5 21.66-3.42-2.64-6.44-5.04-8.67-6.92 1.24-4.04 3.19-9.48 6.26-16.99zm123.71-32.12c-17.03 15.94-46.31 34.67-76.24 42.21-0.28-2.6 0.35-5.95 3.26-9.87 6.53-8.78 28.24-10.78 28.24-10.78-13.67-25.16-8.81-68.56 18.44-78.14-31.34 7.43-31.35 48.87-22.27 76.76-12.11 1.44-23.24 7.32-26.78 12.37-1.88 2.68-2.3 6.56-2.01 9.94q-6.64 1.62-13.26 2.43c12.81 8.37 89.75-29.28 98.88-57.3q-3.76 6.25-8.26 12.38zm-25.56-56.83q-0.37 0.12-0.74 0.25 0.56-0.13 1.13-0.25c13.27-2.73-0.39 0-0.39 0zm-218.07 103.13c-3.9-4-5.59-53.55-4.49-65.02 1.72-17.97 36.14-54.23 41.79-51.1 0 0-9.42 34.34 0.07 45.98 36.09-6.46 43.15 1.04 49.26-5.22 4.63-4.74 30.74-2.66 45.94 7.77-21 7.62-37.74 17.96-32.76 21.03 0 0 11.2 11.1 18.42 32.03-8.17 17.62-8.51 30.65-9.25 37.59-1.59 14.99-43.31 25.15-46.22 18.87 0 0-46.54-25.3-62.76-41.93zm64.98 1.37l3.83-1.37-17.85-4.13zm39.53 0l6.38-8.24-12.76 6.87zm-17.85 23.36l5.1 5.5 5.1-6.87-4.66 3.33z"/>
	</g>
	<g id="frame-2" class="frame">
		<path id="cat 2" fill-rule="evenodd" class="s0" d="m187.24 234c-5.44-16.02-13.39-28.87-18.83-34.06 2.51-2.93 5.65-7.89 34.53-19.17-10.67-10.6-41.23-16.92-53.37-7.44-6.48 2.48-21.97-3.16-43.95 3.15-3.03-5.69-1.4-37.64-0.39-45.95-13.39 1.4-38.03 32.92-43.32 47.62 6.93-41.87 52.27-73.66 113.77-93.04 76.15-23.99 101.66-21.73 146.63 23.6 6.55 6.61 10.37 14.56 11.87 23.37 4.53 12.39 10.05 31.38 9.82 50.13-0.65 53.99-130.87 106.66-139.13 93.55-13.95-6.24-13.9-23.46-13.9-23.46-2.49-6.56 5.32-22.35 17.85-20.62 8.8 1.22 10.2 13.75 10.2 13.75q0.45 0.81 1.28 1.35c0.22-1.75 0.41-4.69-3.83-12.35-2.65-6.3-15.41-5.39-22.32 1.82-5.02 8.02-5.25 15.5-4.5 21.66-3.42-2.64-6.44-5.04-8.67-6.92 1.24-4.04 3.19-9.48 6.26-16.99zm123.71-32.12c-17.03 15.94-46.31 34.67-76.24 42.21-0.28-2.6 0.35-5.95 3.26-9.87 6.53-8.78 28.24-10.78 28.24-10.78-13.67-25.16-8.81-68.56 18.44-78.14-31.34 7.43-31.35 48.87-22.27 76.76-12.11 1.44-23.24 7.32-26.78 12.37-1.88 2.68-2.3 6.56-2.01 9.94q-6.64 1.62-13.26 2.43c12.81 8.37 89.75-29.28 98.88-57.3q-3.76 6.25-8.26 12.38zm-25.56-56.83q-0.37 0.12-0.74 0.25 0.56-0.13 1.13-0.25c13.27-2.73-0.39 0-0.39 0zm-218.07 103.13c-3.9-4-5.59-53.55-4.49-65.02 1.72-17.97 36.14-54.23 41.79-51.1 0 0-9.42 34.34 0.07 45.98 36.09-6.46 43.15 1.04 49.26-5.22 4.63-4.74 30.74-2.66 45.94 7.77-21 7.62-37.74 17.96-32.76 21.03 0 0 11.2 11.1 18.42 32.03-8.17 17.62-8.51 30.65-9.25 37.59-1.59 14.99-43.31 25.15-46.22 18.87 0 0-46.54-25.3-62.76-41.93zm64.98 1.37l3.83-1.37-17.85-4.13zm39.53 0l6.38-8.24-12.76 6.87zm-17.85 23.36l5.1 5.5 5.1-6.87-4.66 3.33z"/>
		<path id="z 2" class="s1" d="m32.42 125.2l21.26-19.69-3.79 32.35 17.25-14.57 4.08 3.05-22.72 18.4 0.64-27.54-12.65 11.05z"/>
	</g>
	<g id="frame-3" class="frame">
		<path id="cat 3" fill-rule="evenodd" class="s0" d="m187.24 234c-5.44-16.02-13.39-28.87-18.83-34.06 2.51-2.93 5.65-7.89 34.53-19.17-10.67-10.6-41.23-16.92-53.37-7.44-6.48 2.48-21.97-3.16-43.95 3.15-3.03-5.69-1.4-37.64-0.39-45.95-14.62 1.53-42.63 38.94-44.26 51.2q-0.14 1.11-0.26 2.24c1.64-46.32 43.01-84.8 107.52-105.13 76.15-23.99 118.34-22.41 154.08 29.87q3.6 5.29 5.79 11.15l0.28-1.71c0 0 16 32.39 15.62 64.06-0.65 53.99-130.87 106.66-139.13 93.55-13.95-6.24-13.9-23.46-13.9-23.46-2.49-6.56 5.32-22.35 17.85-20.62 8.8 1.22 10.2 13.75 10.2 13.75q0.45 0.81 1.28 1.35c0.22-1.75 0.41-4.69-3.83-12.35-2.65-6.3-15.41-5.39-22.32 1.82-5.02 8.02-5.25 15.5-4.5 21.66-3.42-2.64-6.44-5.04-8.67-6.92 1.24-4.04 3.19-9.48 6.26-16.99zm120.47-29.19c-17.35 15.24-44.89 32.19-73 39.28-0.28-2.6 0.35-5.95 3.26-9.87 6.53-8.78 28.24-10.78 28.24-10.78-13.67-25.16-8.81-68.56 18.44-78.14-31.34 7.43-31.35 48.87-22.27 76.76-12.11 1.44-23.24 7.32-26.78 12.37-1.88 2.68-2.3 6.56-2.01 9.94q-6.64 1.62-13.26 2.43c13.56 8.86 98.95-33.84 99.76-62.1-3.46 6.81-7.61 13.56-12.38 20.11zm-22.32-59.76q-0.37 0.12-0.74 0.25 0.56-0.13 1.13-0.25c13.27-2.73-0.39 0-0.39 0zm-218.07 103.13c-3.9-4-5.59-53.55-4.49-65.02 1.72-17.97 36.14-54.23 41.79-51.1 0 0-9.42 34.34 0.07 45.98 36.09-6.46 43.15 1.04 49.26-5.22 4.63-4.74 30.74-2.66 45.94 7.77-21 7.62-37.74 17.96-32.76 21.03 0 0 11.2 11.1 18.42 32.03-8.17 17.62-8.51 30.65-9.25 37.59-1.59 14.99-43.31 25.15-46.22 18.87 0 0-46.54-25.3-62.76-41.93zm64.98 1.37l3.83-1.37-17.85-4.13zm39.53 0l6.38-8.24-12.76 6.87zm-17.85 23.36l5.1 5.5 5.1-6.87-4.66 3.33z"/>
		<path id="z 3" class="s1" d="m32.42 125.2l21.26-19.69-3.79 32.35 17.25-14.57 4.08 3.05-22.72 18.4 0.64-27.54-12.65 11.05zm-15.24-48.76l31.65-12.86-15.94 33.15 25.18-8.92 3.63 4.83-32.88 10.93 10.58-29.23-18.59 6.93z"/>
	</g>
	<g id="frame-4" class="frame">
		<path id="cat 4" fill-rule="evenodd" class="s0" d="m187.24 234c-5.44-16.02-13.39-28.87-18.83-34.06 2.51-2.93 5.65-7.89 34.53-19.17-10.67-10.6-41.23-16.92-53.37-7.44-6.48 2.48-21.97-3.16-43.95 3.15-3.03-5.69-1.4-37.64-0.39-45.95-14.62 1.53-42.63 38.94-44.26 51.2q-0.14 1.11-0.26 2.24c1.64-46.32 43.01-84.8 107.52-105.13 76.15-23.99 118.34-22.41 154.08 29.87q3.6 5.29 5.79 11.15l0.28-1.71c0 0 16 32.39 15.62 64.06-0.65 53.99-130.87 106.66-139.13 93.55-13.95-6.24-13.9-23.46-13.9-23.46-2.49-6.56 5.32-22.35 17.85-20.62 8.8 1.22 10.2 13.75 10.2 13.75q0.45 0.81 1.28 1.35c0.22-1.75 0.41-4.69-3.83-12.35-2.65-6.3-15.41-5.39-22.32 1.82-5.02 8.02-5.25 15.5-4.5 21.66-3.42-2.64-6.44-5.04-8.67-6.92 1.24-4.04 3.19-9.48 6.26-16.99zm120.47-29.19c-17.35 15.24-44.89 32.19-73 39.28-0.28-2.6 0.35-5.95 3.26-9.87 6.53-8.78 28.24-10.78 28.24-10.78-13.67-25.16-8.81-68.56 18.44-78.14-31.34 7.43-31.35 48.87-22.27 76.76-12.11 1.44-23.24 7.32-26.78 12.37-1.88 2.68-2.3 6.56-2.01 9.94q-6.64 1.62-13.26 2.43c13.56 8.86 98.95-33.84 99.76-62.1-3.46 6.81-7.61 13.56-12.38 20.11zm-22.32-59.76q-0.37 0.12-0.74 0.25 0.56-0.13 1.13-0.25c13.27-2.73-0.39 0-0.39 0zm-218.07 103.13c-3.9-4-5.59-53.55-4.49-65.02 1.72-17.97 36.14-54.23 41.79-51.1 0 0-9.42 34.34 0.07 45.98 36.09-6.46 43.15 1.04 49.26-5.22 4.63-4.74 30.74-2.66 45.94 7.77-21 7.62-37.74 17.96-32.76 21.03 0 0 11.2 11.1 18.42 32.03-8.17 17.62-8.51 30.65-9.25 37.59-1.59 14.99-43.31 25.15-46.22 18.87 0 0-46.54-25.3-62.76-41.93zm64.98 1.37l3.83-1.37-17.85-4.13zm39.53 0l6.38-8.24-12.76 6.87zm-17.85 23.36l5.1 5.5 5.1-6.87-4.66 3.33z"/>
		<path id="z 4" class="s1" d="m32.42 125.2l21.26-19.69-3.79 32.35 17.25-14.57 4.08 3.05-22.72 18.4 0.64-27.54-12.65 11.05zm-15.24-48.76l31.65-12.86-15.94 33.15 25.18-8.92 3.63 4.83-32.88 10.93 10.58-29.23-18.59 6.93zm22.1-64.96l50.91 5.44-42.74 32.36 39.66 6.04 1.8 8.93-51.33-8.86 33-30.98-29.5-4z"/>
	</g>
</svg>